<svg width="373" height="110" viewBox="0 0 373 110" fill="none" xmlns="http://www.w3.org/2000/svg">
<path d="M153.62 54.0517C153.62 70.0251 140.671 82.9741 124.698 82.9741C108.725 82.9741 95.7757 70.0251 95.7757 54.0517C95.7757 38.0784 108.725 25.1294 124.698 25.1294C140.671 25.1294 153.62 38.0784 153.62 54.0517ZM110.324 54.0517C110.324 61.9905 116.759 68.4261 124.698 68.4261C132.637 68.4261 139.072 61.9905 139.072 54.0517C139.072 46.113 132.637 39.6774 124.698 39.6774C116.759 39.6774 110.324 46.113 110.324 54.0517Z" fill="url(#paint0_linear)"/>
<path d="M219.763 54.0517C219.763 70.0251 206.814 82.9741 190.84 82.9741C174.867 82.9741 161.918 70.0251 161.918 54.0517C161.918 38.0784 174.867 25.1294 190.84 25.1294C206.814 25.1294 219.763 38.0784 219.763 54.0517ZM176.466 54.0517C176.466 61.9905 182.901 68.4261 190.84 68.4261C198.779 68.4261 205.215 61.9905 205.215 54.0517C205.215 46.113 198.779 39.6774 190.84 39.6774C182.901 39.6774 176.466 46.113 176.466 54.0517Z" fill="url(#paint1_linear)"/>
<rect x="294.202" y="0.948242" width="14.4612" height="82.0257" rx="7.23059" fill="url(#paint2_linear)"/>
<path fill-rule="evenodd" clip-rule="evenodd" d="M82.974 41.487C82.974 41.5979 82.9736 41.7088 82.9727 41.8197C82.9736 41.8674 82.974 41.9151 82.974 41.9631C82.974 42.0779 82.9713 42.1922 82.9659 42.3057C82.7897 51.2396 79.7328 59.8863 74.2391 66.9521C68.5778 74.2335 60.6514 79.4207 51.7126 81.6941C42.7739 83.9674 33.3324 83.1972 24.8803 79.5052C16.4281 75.8132 9.44724 69.41 5.04083 61.3073C0.634412 53.2046 -0.946277 43.8646 0.548549 34.7632C2.04337 25.6618 6.52847 17.3181 13.2951 11.0505C20.0617 4.78289 28.7239 0.948865 37.913 0.154285C46.5134 -0.589395 55.1162 1.36912 62.5305 5.73312C65.202 6.81292 67.0905 9.46464 67.0905 12.5647C67.0905 16.6235 63.8532 19.9138 59.8599 19.9138C58.2288 19.9138 56.7239 19.3649 55.5142 18.4389C50.6159 15.4577 44.8885 14.1112 39.1626 14.6063C33.1866 15.123 27.5531 17.6165 23.1524 21.6926C18.7517 25.7688 15.8349 31.1951 14.8627 37.1142C13.8905 43.0333 14.9185 49.1076 17.7843 54.3771C20.65 59.6467 25.19 63.8111 30.6868 66.2122C36.1837 68.6132 42.3239 69.1141 48.1373 67.6357C53.9506 66.1572 59.1055 62.7837 62.7873 58.0482C64.8825 55.3535 66.4327 52.3053 67.3796 49.0731H49.4289C45.4355 49.0731 42.1983 45.8359 42.1983 41.8425C42.1983 37.8492 45.4355 34.612 49.4289 34.612H75.6229C79.5229 34.612 82.7136 37.649 82.9589 41.487H82.974Z" fill="url(#paint3_linear)"/>
<path fill-rule="evenodd" clip-rule="evenodd" d="M256.982 82.9741C262.25 82.9741 267.189 81.5657 271.443 79.1048V81.0776H271.357C271.357 84.1868 270.349 87.2121 268.484 89.6998C266.619 92.1875 263.997 94.0035 261.013 94.8753C258.029 95.7472 254.842 95.6279 251.931 94.5353C249.099 93.4722 246.676 91.5433 245.005 89.0261C243.793 86.6957 241.384 85.1077 238.609 85.1077C234.616 85.1077 231.379 88.398 231.379 92.4568C231.379 94.0026 231.848 95.4369 232.65 96.6204L232.608 96.6473C235.976 101.919 240.962 105.957 246.819 108.156C252.676 110.354 259.088 110.594 265.092 108.84C271.097 107.085 276.371 103.432 280.124 98.4261C283.496 93.9281 285.476 88.5565 285.842 82.9741H285.905V81.1291V81.0776V54.0668L285.905 54.0517C285.905 38.0784 272.956 25.1294 256.982 25.1294C241.009 25.1294 228.06 38.0784 228.06 54.0517C228.06 70.0251 241.009 82.9741 256.982 82.9741ZM256.982 68.4261C249.043 68.4261 242.608 61.9905 242.608 54.0517C242.608 46.113 249.043 39.6774 256.982 39.6774C264.921 39.6774 271.357 46.113 271.357 54.0517C271.357 61.9905 264.921 68.4261 256.982 68.4261Z" fill="url(#paint4_linear)"/>
<path fill-rule="evenodd" clip-rule="evenodd" d="M370.93 39.5906L370.875 39.4957C370.864 39.4758 370.853 39.4559 370.841 39.436C370.81 39.3813 370.778 39.3271 370.745 39.2735C367.533 33.8695 362.645 29.6561 356.819 27.2765C350.879 24.8507 344.302 24.4686 338.121 26.1904C331.941 27.9121 326.508 31.6401 322.678 36.7875C318.849 41.9349 316.839 48.2096 316.966 54.6242C317.093 61.0387 319.349 67.229 323.38 72.2208C327.41 77.2126 332.986 80.7227 339.23 82.1985C345.474 83.6743 352.031 83.0322 357.87 80.3732C363.709 77.7142 368.498 73.1892 371.483 67.5103L371.454 67.4951C371.93 66.5154 372.198 65.4123 372.198 64.2458C372.198 60.187 368.96 56.8967 364.967 56.8967C362.222 56.8967 359.834 58.4516 358.609 60.7423L358.606 60.7406C357.122 63.563 354.742 65.8119 351.84 67.1335C348.938 68.455 345.68 68.7741 342.576 68.0407C341.177 67.7099 339.845 67.1735 338.621 66.4567L368.173 49.3948C371.608 47.4115 372.819 43.0545 370.929 39.5916L370.93 39.5906ZM352.907 41.5103L331.51 53.8639C331.549 50.8412 332.541 47.9032 334.35 45.4714C336.254 42.9132 338.954 41.0604 342.025 40.2047C345.097 39.3489 348.366 39.5388 351.318 40.7445C351.865 40.9679 352.396 41.2239 352.907 41.5103Z" fill="url(#paint5_linear)"/>
<defs>
<linearGradient id="paint0_linear" x1="124.698" y1="25.1294" x2="124.698" y2="82.9741" gradientUnits="userSpaceOnUse">
<stop stop-color="#FF0000"/>
<stop offset="1" stop-color="#990000"/>
</linearGradient>
<linearGradient id="paint1_linear" x1="190.84" y1="25.1294" x2="190.84" y2="82.9741" gradientUnits="userSpaceOnUse">
<stop stop-color="#FFDD00"/>
<stop offset="1" stop-color="#FBB034"/>
</linearGradient>
<linearGradient id="paint2_linear" x1="301.433" y1="0.948242" x2="301.433" y2="82.9739" gradientUnits="userSpaceOnUse">
<stop stop-color="#5AFF15"/>
<stop offset="1" stop-color="#00B712"/>
</linearGradient>
<linearGradient id="paint3_linear" x1="41.487" y1="0" x2="41.487" y2="82.974" gradientUnits="userSpaceOnUse">
<stop stop-color="#09C6F9"/>
<stop offset="1" stop-color="#045DE9"/>
</linearGradient>
<linearGradient id="paint4_linear" x1="256.982" y1="25.1294" x2="256.982" y2="110" gradientUnits="userSpaceOnUse">
<stop stop-color="#09C6F9"/>
<stop offset="1" stop-color="#045DE9"/>
</linearGradient>
<linearGradient id="paint5_linear" x1="344.579" y1="25.1294" x2="344.579" y2="82.9741" gradientUnits="userSpaceOnUse">
<stop stop-color="#FF0000"/>
<stop offset="1" stop-color="#990000"/>
</linearGradient>
</defs>
</svg>
